<?xml version="1.0" encoding="UTF-8"?>
<svg xmlns="http://www.w3.org/2000/svg" viewBox="0 0 566.7372 453">
  <defs>
    <style>
      .cls-1 {
        fill: #ffd167;
      }

      .cls-1, .cls-2 {
        stroke-width: 0px;
      }

      .cls-3 {
        stroke: #88a0a8;
      }

      .cls-3, .cls-4, .cls-5 {
        stroke-miterlimit: 10;
        stroke-width: 3px;
      }

      .cls-3, .cls-5 {
        fill: none;
      }

      .cls-2 {
        fill: #f15a46;
      }

      .cls-4 {
        fill: #292929;
        stroke: #292929;
      }

      .cls-5 {
        stroke: #f15a46;
      }
    </style>
  </defs>
  <g id="baclground">
    <circle class="cls-4" cx="226.5" cy="226.5" r="225"/>
  </g>
  <g id="Deer">
    <path class="cls-5" d="M223.2234,280.0831c2.8591.5455,5.3252,1.2138,6.8889,1.972,8.18,3.99,8.24,7.75,18.25,13,9.65,5.06,13.18,3.46,24.5,8.25,4.2143,1.783,7.7766,3.7203,10.7932,5.5927"/>
    <path class="cls-5" d="M295.4309,317.435c5.9914,4.9893,10.9651,10.4779,15.0613,15.8801-11.56,16.35-31.35,30.4-55.87,37.74-21.79,6.52-43.37,6.57-60.99,1.37-7.21-24.38-4.04-39.55,1.1-49.32,4.24-8.04,11.62-15.85,15.76-32.17.3017-1.1919.6034-2.3909.8897-3.596"/>
    <path class="cls-5" d="M193.5422,372.3951c-5.53-1.64-10.59-4.6-14.79-8.55-9.41-8.81-17.86-19.12-24.96-30.73-4.45-7.26-8.37-15.03-11.67-23.27-.8894-2.2167-1.7238-4.4404-2.5037-6.6689"/>
    <path class="cls-5" d="M211.3819,287.3391c-.2862,1.2051-.588,2.4041-.8897,3.596-4.14,16.32-11.52,24.13-15.76,32.17"/>
    <path class="cls-5" d="M134.8907,286.8564c-.8704-3.7729-1.5892-7.5465-2.1585-11.3114-3.16-20.77-1.82-41.28,3.48-59.98h.01c1.97-6.98,4.5-13.7,7.55-20.09-1.37-1.44-2.8799-3.14-4.53-5.17-3.05-3.73-9.12-11.28-13.13-21.56-4.56-11.7-5.28-23.89-3.19-24.57,2.05-.66,3.97,10.62,14.72,16.94,5.7,3.34,7.8199,1.74,13.22,5.94,3.14,2.44,4.41,4.53,6.37,6.62,1.08,1.15,2.38,2.29,4.32,3.5,3.27,2.04,3.86,1.44,9.43,3.76,5.23,2.18,12.62,5.26,17.25,11,3.38,4.2,1.87,5.58,5.19,13.37,4.05,9.49,19.13,27.37,19.13,27.37,0,0,6.85,7.29,6.75,10.69-.12,4.05-3.52,8.39-12.81,13.24.97,1.1,2.65,3.59,2.65,3.59,0,0,.02.03.05.09.04.06.09.15.15.25.3.54.89,1.6,1.3,2.43.08.17.16.33.22.47.5532,1.2502.9918,2.5003,1.3311,3.7496"/>
    <path class="cls-5" d="M180.8622,243.5551c2.37.38,16.85,2.92,25.63,13.05"/>
    <path class="cls-2" d="M151.0129,190.6012c3.4084-9.9616,4.6705-20.6361,2.3798-30.8836-1.6174-7.0853-4.8685-14.2899-6.4344-21.6563-8.4156-38.1601,3.4584-80.7197,34.6591-105.3171,1.4914-1.2128,3.0269-2.3686,4.5825-3.4924,1.5336-1.1457,3.1949-2.1631,5.5373-2.0718-.789,2.2093-2.214,3.3769-3.6985,4.5081-18.9301,14.8404-31.6514,37.06-34.8954,60.8709-2.5881,18.0621-1.4876,36.78,5.4375,53.8177,6.5378,15.4648,7.221,31.3672,1.8804,47.3822.0003,0-9.4483-3.1578-9.4483-3.1578h0Z"/>
    <path class="cls-2" d="M184.6122,74.0551c.2884,6.9789-8.3034,14.0853-13.4243,17.9036-5.3842,4.0103-11.5874,7.6479-18.4372,8.3549-1.7317.3391-2.298-.6476-3.3263-2.6662,0,0-.4106-2.9718-.4106-2.9718.2255-1.5456.5012-2.4587.8425-2.9203.3301-.5189.7455-.4937,1.1374-.6229l2.3578-.6549c4.6355-1.3042,9.739-2.3817,14.0957-4.5756,3.0119-1.4881,5.7924-3.4435,8.4054-5.5488,3.0443-2.1958,4.9124-4.8767,8.7596-6.298h0Z"/>
    <path class="cls-2" d="M169.2447,107.8059c1.5057,2.0513,1.3824,4.068,1.0959,5.9995-.6401,5.7908-2.9733,11.9168-6.2533,16.6225-3.9423,5.8272-4.2924,12.5878-7.6878,18.7779,0,0-2.9999.0291-2.9999.0291-3.9473-7.6711-.6669-16.9766,4.3271-23.3449,2.4666-2.9168,4.3804-5.1545,6.1753-8.3789.8663-1.5045,1.6173-3.0945,2.2702-4.7439.6456-1.8496,1.4177-3.6927,3.0725-4.9614h0Z"/>
    <path class="cls-2" d="M180.4801,186.2197c4.2542-6.2102,9.6377-11.7215,15.9013-15.9361,5.9851-3.987,12.1126-6.736,17.8189-10.7462,21.5056-14.9755,38.4277-39.8585,43.0561-65.8034,1.8035-10.0085,1.9214-20.3771.4215-30.4673-.2614-1.6884-.5425-3.3762-.8868-5.0528-.3643-1.6764-.6788-3.3399.1946-5.3901,1.7988,1.2983,2.3885,2.991,2.7802,4.7062.4468,1.7069.8302,3.4303,1.1934,5.1595.7015,3.4633,1.2226,6.9687,1.5584,10.4979,2.5446,24.9728-5.4418,50.4735-20.5761,70.3718-8.3454,11.6759-19.1894,21.9245-31.6695,29.128-8.7036,4.851-16.1358,10.686-21.5329,19.1037-.0002-.0002-8.2591-5.5713-8.2591-5.5713h0Z"/>
    <path class="cls-2" d="M232.1226,93.1954c2.0159,3.5677,1.7094,6.825,2.6128,10.4675.6328,3.2955,1.4904,6.5847,2.8266,9.667,1.9019,4.4836,5.109,8.6181,7.7974,12.6025,0,0,1.3756,2.0238,1.3756,2.0238.2155.3518.5487.6011.4652,1.2104-.0379.5728-.4178,1.4477-1.2448,2.7728l-2.2343,2.002c-2.0884.8758-3.1599,1.2644-4.2615-.1156-4.7694-4.9675-7.1511-11.7521-8.6669-18.2925-1.4393-6.2473-3.4055-17.1718,1.3297-22.3379h0Z"/>
    <path class="cls-2" d="M222.0444,128.8893c.4078,2.0538-.1628,3.9305-.8753,5.7632-1.1284,3.2897-1.7532,6.7558-1.9654,10.1784-.0954,1.6755-.0395,3.2639-.0731,5.2933-.3057,8.0875-3.8181,17.3075-11.7881,20.6095-.0001,0-2.2702-1.9614-2.2702-1.9614,1.4096-6.9156,5.5138-12.3041,6.2717-19.2971.5406-5.7126,2.7179-11.8904,5.9738-16.725,1.0272-1.6475,2.2557-3.3129,4.7266-3.861h0Z"/>
  </g>
  <g id="snake">
    <path class="cls-1" d="M349.7253,256.6783c-.6952-1.285-.5025-2.1178-.7483-3.3263-.4596-1.9097-1.8272-3.3748-3.5394-4.283-.8584-.4715-1.8105-.7788-2.7958-1.0302l.4408-2.9675c1.3454.1184,2.6849.5201,3.8924,1.2018,2.4452,1.3166,4.3472,3.9528,4.4332,6.786.0401,1.385-.1086,3.1359-1.6829,3.6192h0Z"/>
    <path class="cls-1" d="M356.0092,242.0872c-.3732,2.1673-2.0507,2.601-3.4102,3.3464-2.0676,1.0087-4.5458,1.7969-6.8605,1.9911-1.3307.1301-2.3889.5651-3.4396,1.2743-1.797,1.3062-2.3053,2.9302-3.9882,4.8806-1.1916,1.3599-2.8881,2.3499-4.6183,2.7946-3.3723.8239-6.7109-.0198-9.7401-1.2928,0,0,1.0697-2.8028,1.0697-2.8028,15.059,4.7976,8.6004-7.9499,22.5088-8.1042,1.3275-.2107,2.7037-.6216,4.0137-1.1399,1.3423-.4121,2.4778-1.6158,4.4647-.9474h0Z"/>
    <path class="cls-3" d="M246.9813,292.6007c1.2388-2.0852,2.056-3.0815,4.3809-5.0456,6.6604-5.6266,15.3524-7.0229,20.3011-7.1696,5.3234-.1579,10.7324.8202,16.6989,5.1696,6.869,5.0074,8.5093,12.6989,9,15,2.8941,13.5709-5.3185,24.2759-6.5,25.75-5.8485,7.2966-13.3322,9.8489-16.4168,10.8557-6.244,2.0378-11.4586,1.8572-16.3332,1.6443-7.1664-.313-8.3035-1.5771-21.0855-3.5344-12.6516-1.9373-15.5853-1.3187-17.8304.3579-4.39,3.2784-4.1653,9.1216-5.7841,8.9962-1.7741-.1375-4.3288-7.3327-1.8-12.9447,3.2165-7.1381,13.3003-8.7036,17.625-9.375,4.4546-.6915,8.7197-.2111,17.25.75,11.6889,1.3169,19.104,3.4049,26.3907-1.0298.3178-.1934.5473-.341.7343-.4702,7.0522-4.8711,10.8521-13.6558,10.5-17.75-.0862-1.0026-.5815-6.763-5-9.25-4.6017-2.5902-9.9929.3211-11.25,1-2.5518,1.378-3.6441,1.8721-3.9748,3.1486"/>
    <path class="cls-3" d="M156.6435,340.2113c-.8203.5625-2.056,1.1246-3.4062,1.8125-2.3563,1.2005-4.1648,2.0132-4.625,2.2188-1.8856.8424-3.9404,1.7789-5.066,2.0783-4.0948,1.0893-8.7262.8652-17.059-.2033-6.3918-.8196-7.9372-3.1511-9.75-5.4375-4.3605-5.4998-.8397-14.0645.5625-16.875,4.816-9.6532,12.5485-14.736,17.0625-17.625,9.6248-6.1599,18.4932-8.131,29.625-10.5,6.9196-1.4726,7.4142-1.0834,25.3125-3.5625,26.4096-3.658,28.1265-8.2088,30.0057-9.375,10.5608-6.5538,10.8496-10.6795,20.9943-20.8125,0,0,6.7491-6.8942,11.7114-10.307,4.5652-3.1398,8.4855-7.5442,22.8892-8.8824"/>
    <path class="cls-3" d="M166.6918,353.3685c-3.3728,2.8505-6.9325,4.8867-12.6421,7.1866-6.9437,2.7971-23.1271,7.7404-39.375.375-5.0495-2.289-13.3589-5.9777-17.4375-14.8125-5.0343-10.905-.2007-22.1647,1.875-27,4.7983-11.1775,11.7972-18.6155,19.125-24,3.9812-2.9254,15.5322-8.7547,31.875-13.3125,22.2275-6.199,34.8696-3.3085,52.9059-10.236,15.1189-5.8069,21.1166-14.6345,22.6492-16.5426,5.6702-7.0593,8.136-13.1295,15.3824-19.9089,3.2059-2.9993,7.2785-6.7559,13.6875-10.125,9.026-4.7449,17.0108-5.738,19.6875-6,5.2564-.5145,10.7636-1.0535,16.875,1.125,9.0776,3.2358,10.634,9.3108,21.9842,18.3867,4.7145,3.7698,9.1019,6.4448,12.4057,8.2436,1.2207.6646,1.7068,2.1434,1.1581,3.4204-.5021,1.1685-1.2451,2.4102-2.3606,3.5118-3.8976,3.8489-9.7519,3.4283-16.875,2.8125-5.6019-.4843-12.1953-1.0543-20.0625-4.875-9.9928-4.8531-15.847-11.9429-18.5625-15.75"/>
  </g>
</svg>